PathFileType	4	(X/Y/Z)	C:\Users\WrightLab\Desktop\Jo\P4V132.trc
DataRate	CameraRate	NumFrames	NumMarkers	Units	OrigDataRate	OrigDataStartFrame	OrigNumFrames
100.00	100.00	       9	19	mm	100.00	321	       512
Frame#	Time	Headset_Front			Headset_Back			Headset_Left			Headset_Right			Left_Shoulder			Right_Shoulder			Sternum			C7			Left Elbow			Right Elbow			Left Wrist			Right Wrist			Left ASIS			Right ASIS			S2			Left Knee			Right Knee			Left Ankle			Right Ankle			
		X1	Y1	Z1	X2	Y2	Z2	X3	Y3	Z3	X4	Y4	Z4	X5	Y5	Z5	X6	Y6	Z6	X7	Y7	Z7	X8	Y8	Z8	X9	Y9	Z9	X10	Y10	Z10	X11	Y11	Z11	X12	Y12	Z12	X13	Y13	Z13	X14	Y14	Z14	X15	Y15	Z15	X16	Y16	Z16	X17	Y17	Z17	X18	Y18	Z18	X19	Y19	Z19	

321	3.200	-658.52649	1683.88379	-497.74210	-509.39859	1617.73083	-630.02789							-705.75378	1491.89587	-399.38397	-416.77893	1505.03918	-396.22986	-567.55817	1436.74182	-511.73276	-556.04443	1527.17480	-345.80759	-846.28876	1151.19104	-330.13062	-152.30771	1342.91870	-550.60608	-867.03351	852.87653	-424.40350	-184.17953	1357.82703	-852.63245	-693.36957	1002.10376	-519.67346	-359.66196	986.00305	-488.56662				-702.85443	532.81818	-612.47296	-432.98663	514.59210	-358.19095				-538.74286	64.42115	-138.00267	
322	3.210	-509.81802	1616.69067	-640.80499	-659.34613	1681.85132	-507.71051							-706.10150	1489.76050	-410.72580	-417.82727	1502.67456	-405.32529	-567.99780	1435.06873	-522.18048	-557.49921	1525.78101	-356.33716	-847.88824	1149.91492	-341.62201	-152.57602	1339.20801	-559.56744	-870.94659	851.53174	-436.47345	-185.70677	1353.03943	-860.25842	-693.69513	999.38116	-530.13586	-360.13504	983.85834	-498.43536				-700.86060	529.04651	-621.62445	-432.50742	513.83881	-365.13190				-539.46674	65.44067	-139.44081	
323	3.220	-660.16455	1679.98315	-518.21741	-510.38916	1615.09875	-649.84906							-707.06763	1488.01550	-422.38205	-418.30264	1500.51013	-416.03970	-567.88489	1432.35474	-532.73883	-557.67792	1523.36816	-366.93103	-850.78766	1148.78455	-354.21509	-152.75084	1336.21265	-567.12640	-875.18359	850.44910	-448.34656	-186.99361	1348.50879	-868.41254	-694.15930	996.93726	-541.45215	-360.66388	982.66937	-508.19519				-698.45294	526.76556	-633.24799	-431.84912	512.72961	-372.83148				-539.04449	68.21529	-140.75371	
324	3.230	-660.89899	1678.21741	-528.72754	-510.77182	1614.29663	-660.75134							-708.04480	1486.30505	-434.30569	-418.80685	1498.81030	-426.68359	-568.32794	1430.66003	-543.62799	-559.07672	1521.32471	-377.94418	-852.41595	1147.13953	-365.11072	-153.76157	1332.13171	-577.01337	-879.13477	849.35181	-461.48718	-188.10695	1343.32959	-877.14362	-694.24384	994.59937	-552.12921	-360.98465	981.37836	-518.13153	-574.65503	1015.75824	-360.20432	-695.99463	525.52081	-645.64941	-432.32324	511.47888	-380.49692				-539.19324	70.43008	-141.41528	
325	3.240	-511.06979	1613.73730	-671.50824	-661.74896	1676.58533	-538.77911							-708.92554	1484.97632	-445.47556	-420.15308	1496.99939	-436.52524	-568.88727	1428.71545	-554.57001	-561.06165	1520.32715	-388.70801	-854.62939	1145.71912	-377.14178	-154.59206	1327.92761	-584.94348	-883.35614	848.35004	-473.87662	-189.25217	1338.58923	-886.17871	-694.59601	992.42542	-563.45557	-360.94113	979.95477	-528.22412	-576.16840	1014.03778	-366.40427	-693.51526	524.04852	-658.21503	-431.03177	511.21371	-387.80533				-538.25031	73.68180	-142.90518	
326	3.250	-662.56000	1674.96924	-549.18732	-511.43274	1612.64941	-681.28619							-709.36877	1482.85291	-455.66815	-420.78973	1495.13049	-446.82050	-569.36292	1427.20618	-565.50708	-561.53644	1518.39136	-399.03873	-858.90283	1145.29053	-389.68765	-155.37003	1323.98291	-593.08722	-887.22784	847.35718	-487.26517	-190.22377	1333.24646	-894.01385	-694.87476	990.93079	-574.98657	-361.63470	978.73718	-539.69611	-576.37939	1013.27631	-377.84473	-691.57336	523.61658	-672.13885	-429.79971	510.84149	-397.30478				-538.00201	75.16005	-144.90651	
327	3.260	-663.27197	1673.71106	-560.09668	-511.80698	1611.69128	-691.86469							-710.03461	1481.05591	-466.94797	-421.06799	1493.92993	-457.69083	-569.93500	1425.89880	-576.12207	-562.01178	1515.91357	-409.64169	-861.49646	1144.82227	-402.58701	-156.22665	1319.95959	-601.60773	-892.05603	847.99103	-501.93896	-191.28285	1327.83044	-902.94318	-695.02283	989.86786	-586.56018	-361.73639	977.80219	-550.89191	-576.66656	1009.93988	-393.60657	-689.57367	523.05872	-685.76282	-429.04358	510.23053	-407.08231	-643.19812	24.37638	-772.06549	-537.36157	78.72328	-145.16928	
328	3.270	-512.12695	1611.10596	-702.42188	-664.02747	1672.51245	-570.51581							-711.48889	1479.91272	-478.25363	-422.32040	1492.55310	-468.39014	-570.56671	1424.09692	-586.90814	-563.38690	1515.11426	-420.57962	-863.69611	1143.78931	-415.20474	-156.44200	1316.50732	-609.78320	-895.77856	846.33807	-514.70569	-191.61475	1321.23645	-911.20129	-695.21326	989.34277	-599.29968	-361.93173	977.05640	-562.04352	-576.82147	1010.19781	-400.55142	-687.39551	522.48987	-698.93707	-427.16388	509.73080	-416.02448	-641.13025	25.18629	-775.97784	-536.63367	81.85570	-148.55498	
329	3.280	-664.76294	1671.42554	-580.83734	-512.43787	1610.50830	-712.28485							-712.21796	1478.71802	-489.63583	-423.56924	1491.24377	-478.78192	-571.52051	1423.11121	-597.62244	-565.04028	1513.39233	-431.01535	-866.24567	1143.17822	-427.45273	-157.87125	1311.69934	-618.99579	-899.69464	846.13019	-528.81274	-192.52132	1314.78955	-919.86890	-695.38965	988.78961	-611.37390	-362.37729	975.17834	-573.14606				-685.30267	521.57172	-712.22540	-425.99728	509.15515	-425.52591	-640.09479	28.54028	-780.15802	-535.20819	86.00514	-150.41731	
